<svg xmlns="http://www.w3.org/2000/svg" xmlns:xlink="http://www.w3.org/1999/xlink" width="180" zoomAndPan="magnify" viewBox="0 0 135 135.000003" height="180" preserveAspectRatio="xMidYMid meet" version="1.0"><path fill="#0296ce" d="M 86.925781 63.230469 C 87.257812 65.339844 87.324219 67.546875 87.058594 69.769531 C 85.53125 82.792969 73.734375 92.101562 60.710938 90.574219 C 50.191406 89.332031 42.09375 81.398438 40.171875 71.527344 C 40.1875 71.511719 66.433594 76.304688 86.925781 63.230469 M 32.191406 65.871094 C 24.9375 61.671875 31.078125 56.480469 38.046875 56.148438 C 36.253906 56.726562 28.273438 62.121094 39.65625 65.339844 C 39.707031 65.355469 39.773438 65.371094 39.820312 65.390625 C 39.855469 65.007812 39.886719 64.625 39.921875 64.226562 C 41.449219 51.203125 53.246094 41.894531 66.269531 43.421875 C 76.605469 44.632812 84.601562 52.332031 86.695312 61.953125 C 81.980469 65.15625 72.292969 68.011719 62.222656 69.054688 C 50.359375 70.285156 37.929688 69.1875 32.191406 65.871094 Z M 32.191406 65.871094 " fill-opacity="1" fill-rule="evenodd"/><path fill="#545454" d="M 93.246094 48.582031 C 95.671875 49.890625 99.585938 52.414062 101.144531 51.652344 C 102.339844 51.054688 103.550781 50.457031 104.761719 49.859375 C 108.628906 47.96875 110.054688 51.167969 106.753906 53.394531 L 103.71875 55.515625 C 102.289062 56.511719 102.488281 60.660156 102.589844 63.414062 C 102.636719 64.640625 102.175781 65.324219 101.558594 65.753906 C 101.246094 65.96875 101.09375 65.917969 100.996094 65.554688 C 100.367188 63.132812 99.75 60.710938 99.121094 58.289062 C 99.003906 57.804688 98.855469 57.605469 98.375 57.839844 C 96.683594 58.667969 94.988281 59.480469 93.296875 60.3125 C 93.164062 60.378906 93.097656 60.445312 93.132812 60.59375 C 93.347656 62.1875 93.132812 63.863281 92.054688 64.460938 C 91.804688 64.59375 91.65625 64.609375 91.605469 64.277344 C 91.457031 63.28125 91.421875 61.972656 91.257812 61.058594 C 90.527344 61.257812 90.144531 60.644531 90.578125 60.078125 L 87.886719 58.652344 C 87.273438 58.320312 87.621094 58.003906 88.105469 57.855469 C 89.132812 57.539062 90.59375 58.023438 91.753906 58.652344 C 91.9375 58.753906 92.035156 58.769531 92.203125 58.636719 L 96.882812 54.886719 C 97.261719 54.570312 97.164062 54.453125 96.832031 54.1875 L 90.609375 49.113281 C 90.261719 48.832031 90.359375 48.648438 90.757812 48.480469 C 91.554688 48.148438 92.234375 48.015625 93.246094 48.582031 " fill-opacity="1" fill-rule="evenodd"/></svg>